<svg width="85" height="19" viewBox="0 0 85 19" fill="none" xmlns="http://www.w3.org/2000/svg">
<path d="M0.155623 18.2046V0.274925H7.92981C9.29555 0.274925 10.4424 0.458775 11.3704 0.826473C12.3043 1.19417 13.0076 1.71362 13.4803 2.38481C13.9589 3.05601 14.1982 3.84685 14.1982 4.75734C14.1982 5.41686 14.0523 6.01802 13.7605 6.56081C13.4745 7.10361 13.0718 7.55885 12.5523 7.92655C12.0329 8.28841 11.4259 8.53938 10.7313 8.67946V8.85455C11.5017 8.88373 12.2021 9.07925 12.8325 9.44112C13.4628 9.79714 13.9647 10.2903 14.3383 10.9207C14.7118 11.5452 14.8986 12.2806 14.8986 13.1269C14.8986 14.1074 14.6418 14.9799 14.1282 15.7445C13.6204 16.5091 12.8967 17.1102 11.957 17.548C11.0173 17.9857 9.89671 18.2046 8.59517 18.2046H0.155623ZM5.02325 14.3175H7.29947C8.11658 14.3175 8.72941 14.1657 9.13796 13.8622C9.54652 13.5529 9.75079 13.0977 9.75079 12.4965C9.75079 12.0763 9.65449 11.7203 9.46189 11.4284C9.26929 11.1366 8.99497 10.9148 8.63895 10.7631C8.28876 10.6113 7.86561 10.5355 7.36951 10.5355H5.02325V14.3175ZM5.02325 7.52383H7.01932C7.44539 7.52383 7.82184 7.45671 8.14868 7.32247C8.47552 7.18824 8.72941 6.99563 8.91034 6.74466C9.09711 6.48786 9.19049 6.17561 9.19049 5.80791C9.19049 5.25344 8.99205 4.8303 8.59517 4.53847C8.19829 4.24081 7.69635 4.09198 7.08936 4.09198H5.02325V7.52383ZM16.183 18.2046V0.274925H23.9222C25.2529 0.274925 26.4173 0.517139 27.4153 1.00157C28.4134 1.486 29.1896 2.18345 29.7441 3.09395C30.2985 4.00444 30.5758 5.09586 30.5758 6.36821C30.5758 7.65224 30.2898 8.7349 29.7178 9.61621C29.1517 10.4975 28.355 11.1629 27.3278 11.6123C26.3064 12.0617 25.1128 12.2864 23.7471 12.2864H19.1246V8.50436H22.7666C23.3385 8.50436 23.8259 8.43432 24.2286 8.29425C24.6372 8.14834 24.9494 7.91779 25.1654 7.60263C25.3871 7.28746 25.498 6.87598 25.498 6.36821C25.498 5.8546 25.3871 5.43729 25.1654 5.11629C24.9494 4.78944 24.6372 4.55015 24.2286 4.3984C23.8259 4.24081 23.3385 4.16202 22.7666 4.16202H21.0506V18.2046H16.183ZM26.6887 9.97515L31.1711 18.2046H25.8832L21.5059 9.97515H26.6887ZM36.8679 18.2046H31.6151L37.5333 0.274925H44.1869L50.105 18.2046H44.8522L40.9301 5.21259H40.79L36.8679 18.2046ZM35.8874 11.1308H45.7627V14.7727H35.8874V11.1308ZM66.905 0.274925V18.2046H62.8428L56.3644 8.78451H56.2593V18.2046H51.3917V0.274925H55.5239L61.8973 9.65998H62.0374V0.274925H66.905ZM75.666 18.2046H68.7673V0.274925H75.596C77.4403 0.274925 79.0337 0.633869 80.3761 1.35176C81.7243 2.06381 82.7632 3.09103 83.4927 4.43342C84.2281 5.76997 84.5958 7.37208 84.5958 9.23976C84.5958 11.1074 84.231 12.7125 83.5015 14.0549C82.7719 15.3914 81.7389 16.4186 80.4023 17.1365C79.0658 17.8486 77.487 18.2046 75.666 18.2046ZM73.6349 14.0724H75.4909C76.3781 14.0724 77.1339 13.9294 77.7584 13.6434C78.3887 13.3574 78.8673 12.8642 79.1942 12.1638C79.5268 11.4635 79.6932 10.4888 79.6932 9.23976C79.6932 7.99075 79.5239 7.01606 79.1854 6.31568C78.8527 5.6153 78.3625 5.12212 77.7146 4.83613C77.0726 4.55015 76.2847 4.40715 75.3508 4.40715H73.6349V14.0724Z" fill="white"/>
</svg>
